HIERARCHY
ROOT Hips
{
	OFFSET	0.00	0.00	0.00
	CHANNELS 6 Xposition Yposition Zposition Zrotation Xrotation Yrotation
	JOINT LeftUpLeg
	{
		OFFSET	 0.126116	-0.065224	 0.014019
		CHANNELS 3 Zrotation Xrotation Yrotation
		JOINT LeftLeg
		{
			OFFSET	 0.000000	 0.569914	 0.000000
			CHANNELS 3 Zrotation Xrotation Yrotation
			JOINT LeftFoot
			{
				OFFSET	 0.000000	 0.544423	 0.000000
				CHANNELS 3 Zrotation Xrotation Yrotation
				JOINT LeftToeBase
				{
					OFFSET	 0.000000	 0.207117	 0.000000
					CHANNELS 3 Zrotation Xrotation Yrotation
					End Site
					{
						OFFSET	 0.000000	 0.207117	 0.000000
					}
				}
			}
		}
	}
	JOINT RightUpLeg
	{
		OFFSET	-0.124023	-0.065224	 0.008373
		CHANNELS 3 Zrotation Xrotation Yrotation
		JOINT RightLeg
		{
			OFFSET	 0.000000	 0.570047	 0.000000
			CHANNELS 3 Zrotation Xrotation Yrotation
			JOINT RightFoot
			{
				OFFSET	 0.000000	 0.544354	 0.000000
				CHANNELS 3 Zrotation Xrotation Yrotation
				JOINT RightToeBase
				{
					OFFSET	 0.000000	 0.207540	 0.000000
					CHANNELS 3 Zrotation Xrotation Yrotation
					End Site
					{
						OFFSET	 0.000000	 0.207540	 0.000000
					}
				}
			}
		}
	}
	JOINT Spine
	{
		OFFSET	 0.000184	 0.117403	 0.007763
		CHANNELS 3 Zrotation Xrotation Yrotation
		JOINT Spine1
		{
			OFFSET	 0.000000	 0.137269	 0.000000
			CHANNELS 3 Zrotation Xrotation Yrotation
			JOINT Spine2
			{
				OFFSET	 0.000000	 0.156879	 0.000000
				CHANNELS 3 Zrotation Xrotation Yrotation
				JOINT LeftShoulder
				{
					OFFSET	 0.080501	 0.160143	 0.002496
					CHANNELS 3 Zrotation Xrotation Yrotation
					JOINT LeftArm
					{
						OFFSET	 0.000000	 0.164363	 0.000000
						CHANNELS 3 Zrotation Xrotation Yrotation
						JOINT LeftForeArm
						{
							OFFSET	 0.000000	 0.364576	 0.000000
							CHANNELS 3 Zrotation Xrotation Yrotation
							JOINT LeftHand
							{
								OFFSET	 0.000000	 0.360812	 0.000000
								CHANNELS 3 Zrotation Xrotation Yrotation
								JOINT LeftHandIndex1
								{
									OFFSET	 0.000000	 0.086006	 0.000000
									CHANNELS 3 Zrotation Xrotation Yrotation
									JOINT LeftHandIndex2
									{
										OFFSET	 0.000000	 0.047237	 0.000000
										CHANNELS 3 Zrotation Xrotation Yrotation
										JOINT LeftHandIndex3
										{
											OFFSET	-0.004284	 0.038165	 0.000551
											CHANNELS 3 Zrotation Xrotation Yrotation
											End Site
											{
												OFFSET	-0.004284	 0.038165	 0.000551
											}
										}
									}
								}
							}
						}
					}
				}
				JOINT Neck
				{
					OFFSET	 0.000000	 0.176489	 0.000000
					CHANNELS 3 Zrotation Xrotation Yrotation
					JOINT Head
					{
						OFFSET	 0.000000	 0.077941	 0.001747
						CHANNELS 3 Zrotation Xrotation Yrotation
						End Site
						{
							OFFSET	 0.000000	 0.077941	 0.001747
						}
					}
				}
				JOINT RightShoulder
				{
					OFFSET	-0.080363	 0.159706	-0.000306
					CHANNELS 3 Zrotation Xrotation Yrotation
					JOINT RightArm
					{
						OFFSET	 0.000000	 0.164196	 0.000000
						CHANNELS 3 Zrotation Xrotation Yrotation
						JOINT RightForeArm
						{
							OFFSET	 0.000000	 0.365611	 0.000000
							CHANNELS 3 Zrotation Xrotation Yrotation
							JOINT RightHand
							{
								OFFSET	 0.000000	 0.360648	 0.000000
								CHANNELS 3 Zrotation Xrotation Yrotation
								JOINT RightHandIndex1
								{
									OFFSET	 0.000000	 0.069977	 0.000000
									CHANNELS 3 Zrotation Xrotation Yrotation
									JOINT RightHandIndex2
									{
										OFFSET	 0.000000	 0.052305	 0.000000
										CHANNELS 3 Zrotation Xrotation Yrotation
										JOINT RightHandIndex3
										{
											OFFSET	 0.009002	 0.042196	 0.000782
											CHANNELS 3 Zrotation Xrotation Yrotation
											End Site
											{
												OFFSET	 0.009002	 0.042196	 0.000782
											}
										}
									}
								}
							}
						}
					}
				}
			}
		}
	}
}
MOTION
Frames:    6
Frame Time: 0.03333334
-0.046047	 1.234504	-1.246533	-3.202273	 1.411591	-174.175600	 171.690900	 7.980110	-5.616489	 4.276226	-29.360250	 6.054078	 7.457935	 79.402810	 0.228884	 1.512287	 31.240310	-2.811662	 173.554300	 28.163870	 8.624241	-5.817894	-53.432240	 6.291437	 7.415207	 70.091040	-5.421738	-1.668530	 33.137300	 2.886185	-1.440422	 8.617994	-2.763788	 0.402199	 3.554769	-0.786601	-0.236706	-3.940328	-0.749575	-121.358900	 7.423546	 94.035510	 19.786220	 46.618780	-3.567750	 13.741090	-0.704243	 0.000923	 11.593970	-10.049890	 5.145891	 4.624177	 18.856530	-1.654968	-5.863953	 21.470840	 2.373669	 5.331528	 4.340008	-0.169039	-0.168371	-5.009586	-0.144698	-2.107851	-2.034301	-3.139565	 118.423900	-0.013285	-90.826360	 5.411825	 52.585170	-9.859635	-9.345490	-0.366081	 0.028659	-5.033025	 4.229686	-12.564000	-2.438165	 25.992480	 1.336381	 15.855080	 44.981340	-11.843920	-8.529009	 23.990480	-1.227679
-0.045948	 1.233928	-1.251445	-3.230022	 1.306038	-174.078100	 171.669100	 7.878232	-5.599056	 4.333084	-29.454700	 6.237075	 8.122419	 79.611130	-0.454372	 1.518947	 31.323160	-2.814798	 173.281100	 28.844640	 9.017433	-5.852533	-53.451740	 6.336897	 8.514720	 71.171650	-6.236224	-1.671436	 33.172040	 2.887639	-1.438071	 8.549968	-2.842972	 0.381478	 3.546075	-0.814510	-0.230728	-3.955295	-0.750683	-121.356700	 7.506469	 94.076700	 19.375590	 46.451450	-3.098684	 14.963430	-0.765517	 0.016631	 11.487310	-10.397000	 5.115660	 4.634887	 18.891660	-1.660679	-5.863857	 21.501700	 2.377075	 5.332853	 4.371054	-0.168475	-0.169889	-5.016636	-0.137724	-2.082190	-2.070207	-3.143252	 118.412400	-0.062182	-90.803410	 6.165973	 52.582020	-10.310670	-9.829624	-0.384863	 0.025438	-4.450943	 4.327944	-12.779100	-2.399265	 25.703640	 1.315528	 15.781880	 44.699540	-11.731320	-8.530115	 23.700530	-1.208348
-0.045793	 1.233050	-1.259164	-3.265980	 1.166648	-173.951000	 171.650500	 7.668802	-5.414712	 4.313466	-29.572610	 6.290850	 9.065716	 79.939410	-1.433440	 1.527723	 31.432080	-2.818943	 172.893100	 29.888350	 9.547831	-5.892598	-53.424400	 6.402078	 10.041390	 72.386450	-7.411039	-1.675261	 33.217730	 2.889555	-1.435141	 8.459461	-2.951733	 0.359658	 3.554260	-0.851396	-0.225460	-3.983926	-0.757052	-121.353900	 7.615511	 94.130840	 18.944810	 46.160360	-2.569867	 16.638310	-0.848865	 0.040251	 11.207740	-10.799130	 5.049390	 4.648976	 18.937860	-1.668200	-5.863736	 21.542290	 2.381556	 5.334596	 4.411873	-0.167734	-0.171882	-5.025907	-0.128553	-2.048449	-2.117472	-3.148081	 118.397200	-0.126502	-90.773230	 7.294122	 52.566840	-11.012950	-10.518630	-0.411540	 0.020628	-3.725986	 4.447650	-13.073530	-2.348428	 25.323770	 1.288511	 15.687340	 44.328780	-11.584840	-8.531403	 23.319220	-1.183002
-0.045557	 1.231743	-1.270906	-3.311154	 0.987976	-173.789200	 171.643100	 7.281071	-5.268291	 4.331336	-29.674190	 6.458570	 10.412670	 80.431050	-2.842408	 1.538969	 31.571340	-2.824276	 172.351800	 31.406780	 10.146810	-5.781372	-53.259960	 6.681118	 12.069010	 73.606540	-9.029858	-1.680156	 33.276130	 2.892011	-1.431418	 8.343809	-3.098712	 0.340182	 3.592620	-0.898823	-0.222794	-4.033735	-0.773465	-121.350500	 7.754873	 94.200050	 18.648660	 45.674730	-2.094192	 18.747070	-0.952818	 0.073386	 10.710830	-11.233400	 4.922622	 4.667004	 18.996910	-1.677836	-5.863585	 21.594170	 2.387284	 5.336823	 4.464057	-0.166788	-0.174429	-5.037760	-0.116829	-2.005307	-2.177836	-3.154210	 118.378000	-0.208721	-90.734680	 8.875303	 52.529830	-12.021930	-11.402090	-0.445677	 0.014002	-2.896230	 4.586907	-13.467560	-2.283941	 24.838010	 1.254628	 15.569240	 43.854480	-11.400100	-8.532779	 22.831650	-1.150709
-0.045067	 1.229119	-1.294899	-3.385488	 0.681365	-173.516100	 171.671200	 6.338934	-5.017841	 4.335540	-29.698070	 6.731234	 13.172820	 81.385410	-5.742848	 1.558156	 31.807990	-2.833433	 171.335900	 34.228520	 11.319970	-5.606100	-52.413620	 7.106494	 15.414530	 74.863950	-11.795320	-1.688489	 33.375380	 2.896202	-1.425012	 8.145477	-3.366030	 0.325858	 3.713333	-0.884338	-0.234235	-4.143629	-0.915581	-121.345100	 7.991749	 94.317730	 18.913800	 44.584520	-1.875582	 21.907670	-1.106083	 0.130258	 9.749380	-11.799530	 4.606954	 4.697679	 19.097260	-1.694265	-5.863342	 21.682330	 2.397025	 5.340607	 4.552739	-0.165186	-0.178752	-5.057903	-0.096907	-1.931984	-2.280406	-3.164522	 118.345300	-0.348471	-90.669240	 11.681570	 52.426460	-13.831720	-12.698530	-0.495551	 0.003420	-1.797215	 4.796021	-14.175940	-2.175615	 24.012250	 1.198706	 15.375390	 43.047640	-11.092460	-8.534424	 22.002890	-1.096107
-0.044471	 1.226040	-1.323225	-3.457932	 0.368341	-173.240500	 171.748700	 5.055614	-4.759395	 4.296126	-29.473900	 6.987634	 16.769190	 82.403530	-9.516089	 1.577761	 32.048610	-2.842864	 170.233200	 37.035470	 12.581830	-5.243788	-50.554410	 7.711867	 18.194450	 75.196910	-14.136520	-1.696981	 33.476290	 2.900487	-1.418196	 7.942608	-3.655528	 0.330739	 3.885859	-0.963477	-0.248732	-4.279195	-0.985079	-121.340100	 8.232630	 94.437460	 20.157200	 43.183350	-2.375141	 24.265670	-1.218298	 0.178015	 8.898903	-12.205000	 4.179511	 4.728918	 19.199270	-1.711037	-5.863110	 21.771980	 2.406934	 5.344451	 4.642908	-0.163563	-0.183139	-5.078385	-0.076652	-1.857422	-2.384724	-3.174879	 118.312300	-0.490605	-90.602800	 14.399980	 52.286800	-15.562970	-13.529470	-0.527390	-0.003985	-1.116858	 4.987037	-14.934450	-2.067045	 23.172360	 1.143936	 15.186820	 42.226330	-10.787440	-8.535219	 21.160040	-1.040923
